<svg xmlns="http://www.w3.org/2000/svg" viewBox="0 0 640 384.9">
  <path fill="#E30613" d="M382.4 192c0 104.1-84.4 188.5-188.5 188.5S5.5 296.1 5.5 192 89.8 3.5 193.9 3.5C298 3.5 382.4 87.9 382.4 192z"/>
  <path fill="#F7A600" d="M447 3.5c-48.7 0-93.1 18.5-126.5 48.8-6.8 6.2-13.2 12.9-19 19.9h38.1c5.2 6.3 10 13 14.4 20h-66.8c-4 6.4-7.6 13.1-10.9 20h88.5c3 6.5 5.7 13.1 8 20H268.2c-2.2 6.5-4 13.2-5.5 20h115.4c2.8 12.9 4.2 26.2 4.2 39.9 0 20.9-3.4 41.1-9.7 59.9H268.2c2.3 6.8 5 13.5 8 20h88.5c-3.2 6.9-6.9 13.5-10.9 20H287c4.4 7 9.2 13.6 14.4 19.9h38.1c-5.8 7.1-12.2 13.8-19 20 33.4 30.3 77.8 48.8 126.5 48.8 104.1 0 188.5-84.4 188.5-188.5C635.5 87.9 551.1 3.5 447 3.5z"/>
  <path d="M610.3 297.1c0-3.4 2.7-6.1 6.1-6.1 3.4 0 6.1 2.7 6.1 6.1 0 3.4-2.7 6.1-6.1 6.1-3.3-.1-6.1-2.8-6.1-6.1zm6.1 4.6c2.6 0 4.6-2.1 4.6-4.6 0-2.6-2.1-4.6-4.6-4.6-2.6 0-4.6 2.1-4.6 4.6 0 2.5 2.1 4.6 4.6 4.6zm-.8-2h-1.2v-5.3h2.3c.5 0 1 0 1.4.3.4.3.7.8.7 1.3 0 .6-.4 1.2-.9 1.4l1 2.4h-1.4l-.8-2.1h-.9v2zm0-3h.7c.3 0 .5 0 .8-.1.2-.1.3-.4.3-.6 0-.2-.1-.4-.3-.5-.2-.1-.6-.1-.8-.1h-.7v1.3zm-465.7-84.1c-2.1-.2-3.1-.3-4.6-.3-11.6 0-17.5 4-17.5 11.8 0 4.8 2.9 7.9 7.3 7.9 8.5.1 14.5-7.9 14.8-19.4zm14.9 34.7h-17l.4-8.1c-5.2 6.4-12.1 9.4-21.4 9.4-11.1 0-18.7-8.7-18.7-21.2 0-18.9 13.2-30 35.9-30 2.3 0 5.3.2 8.3.6.6-2.6.8-3.7.8-5 0-5.2-3.6-7.1-13.1-7.1-10-.1-18.3 2.4-21.7 3.5.2-1.3 2.8-17.5 2.8-17.5 10.2-3 16.9-4.1 24.5-4.1 17.6 0 26.9 7.9 26.9 22.8 0 4-.6 8.9-1.7 15.4-1.7 11.3-5.5 35.4-6 41.3zm-65.3 0H79.1l11.7-73.5-26.2 73.5H50.7L49 174.2l-12.4 73.1H17.5l16-95.6h29.4l1.8 53.5 17.9-53.5h32.8m356.9 60.9c-2.1-.2-3.1-.3-4.6-.3-11.6 0-17.5 4-17.5 11.8 0 4.8 2.9 7.9 7.3 7.9 8.4.1 14.4-7.9 14.8-19.4zm14.9 34.7h-17l.4-8.1c-5.2 6.4-12.1 9.4-21.4 9.4-11.1 0-18.7-8.7-18.7-21.2 0-18.9 13.2-30 35.9-30 2.3 0 5.3.2 8.3.6.6-2.6.8-3.7.8-5 0-5.2-3.6-7.1-13.1-7.1-10-.1-18.3 2.4-21.7 3.5.2-1.3 2.8-17.5 2.8-17.5 10.2-3 16.9-4.1 24.5-4.1 17.6 0 26.9 7.9 26.9 22.8 0 4-.6 8.9-1.7 15.4-1.7 11.3-5.5 35.4-6 41.3zm-231.5-1.2c-5.6 1.8-10 2.5-14.7 2.5-10.5 0-16.2-6-16.2-17.1-.1-3.4 1.5-12.5 2.8-20.7 1.2-7.3 8.9-53.1 8.9-53.1h20.3l-2.4 11.8h12.3l-2.8 18.7h-12.3c-2.4 14.8-5.7 33.2-5.8 35.6 0 4 2.1 5.8 7 5.8 2.3 0 4.1-.2 5.5-.7l-2.6 17.2zm62.4-.6c-7 2.1-13.7 3.2-20.9 3.1-22.8 0-34.6-11.9-34.6-34.7 0-26.6 15.1-46.1 35.6-46.1 16.8 0 27.5 11 27.5 28.1 0 5.7-.7 11.3-2.5 19.1h-40.5c-1.4 11.3 5.8 16 17.7 16 7.3 0 13.8-1.5 21.1-4.9l-3.4 19.4zm-11.4-46.1c.1-1.6 2.2-13.9-9.5-13.9-6.5 0-11.1 4.9-13 13.9h22.5zm-129.6-5.3c0 9.8 4.8 16.6 15.6 21.7 8.3 3.9 9.6 5.1 9.6 8.6 0 4.8-3.7 7-11.7 7-6.1 0-11.8-1-18.3-3.1 0 0-2.7 17.1-2.8 18 4.6 1 8.8 2 21.3 2.3 21.6 0 31.6-8.2 31.6-26 0-10.7-4.2-17-14.4-21.7-8.6-3.9-9.6-4.8-9.6-8.4 0-4.2 3.4-6.3 10-6.3 4 0 9.5.4 14.7 1.2l2.9-18c-5.3-.8-13.3-1.5-18-1.5-23.1-.1-31 11.8-30.9 26.2zm240.5-24.3c5.7 0 11 1.5 18.3 5.2l3.3-20.8c-3-1.2-13.6-8.1-22.5-8.1-13.7 0-25.3 6.8-33.4 18-11.9-3.9-16.8 4-22.7 11.9l-5.3 1.2c.4-2.6.8-5.2.6-7.8h-18.8c-2.6 24.1-7.1 48.4-10.7 72.5l-.9 5.2H346c3.4-22.2 5.3-36.4 6.4-46l7.7-4.3c1.1-4.3 4.8-5.7 12-5.6-.9 5.1-1.5 10.4-1.5 15.9 0 25.4 13.7 41.3 35.8 41.3 5.7 0 10.5-.7 18.1-2.8l3.6-21.8c-6.8 3.3-12.3 4.9-17.4 4.9-11.9 0-19.1-8.8-19.1-23.3 0-20.8 10.7-35.6 26-35.6zm173.3-18.1l-4.5 27.6c-5.6-7.4-11.6-12.7-19.5-12.7-10.3 0-19.7 7.8-25.9 19.3-8.6-1.8-17.4-4.8-17.4-4.8v.1c.7-6.4 1-10.4.9-11.7h-18.8c-2.6 24.1-7.1 48.4-10.7 72.5l-.9 5.2h20.5c2.8-17.9 4.9-32.9 6.4-44.7 7-6.3 10.5-11.8 17.6-11.5-3.1 7.6-5 16.3-5 25.2 0 19.4 9.8 32.3 24.7 32.3 7.5 0 13.3-2.6 18.9-8.6l-1 7.2h19.4l15.6-95.6h-20.3zm-25.6 77.6c-7 0-10.5-5.2-10.5-15.3 0-15.3 6.6-26.1 15.9-26.1 7 0 10.8 5.4 10.8 15.2 0 15.4-6.7 26.2-16.2 26.2z"/>
  <path fill="#FFF" d="M105.4 241.6H85l11.7-73.5-26.2 73.5H56.6l-1.8-73.1-12.3 73.1H23.4l16-95.6h29.4l.8 59.2L89.5 146h31.8m34.5 61c-2.1-.2-3.1-.3-4.6-.3-11.6 0-17.5 4-17.5 11.8 0 4.8 2.9 7.9 7.3 7.9 8.5 0 14.5-7.9 14.8-19.4zm14.9 34.6h-17l.4-8c-5.2 6.4-12.1 9.4-21.4 9.4-11.1 0-18.7-8.7-18.7-21.2 0-18.9 13.2-30 35.9-30 2.3 0 5.3.2 8.3.6.6-2.6.8-3.7.8-5.1 0-5.2-3.6-7.1-13.1-7.1-10-.1-18.3 2.4-21.7 3.5.2-1.3 2.8-17.5 2.8-17.5 10.2-3 16.9-4.1 24.5-4.1 17.6 0 26.9 7.9 26.9 22.8 0 4-.6 8.9-1.7 15.4-1.7 11.3-5.5 35.4-6 41.3zm274.4-93l-3.3 20.8c-7.3-3.7-12.6-5.2-18.3-5.2-15.3 0-26 14.8-26 35.8 0 14.5 7.2 23.3 19.1 23.3 5 0 10.6-1.6 17.4-4.9l-3.6 21.8c-7.5 2.1-12.4 2.8-18.1 2.8-22 0-35.8-15.8-35.8-41.3 0-34.2 19-58.1 46.1-58.1 9 0 19.5 3.8 22.5 5zm33.1 58.4c-2.1-.2-3.1-.3-4.6-.3-11.6 0-17.5 4-17.5 11.8 0 4.8 2.9 7.9 7.3 7.9 8.4 0 14.4-7.9 14.8-19.4zm14.8 34.6h-17l.4-8c-5.2 6.4-12.1 9.4-21.4 9.4-11.1 0-18.7-8.7-18.7-21.2 0-18.9 13.2-30 35.9-30 2.3 0 5.3.2 8.3.6.6-2.6.8-3.7.8-5.1 0-5.2-3.6-7.1-13.1-7.1-10-.1-18.3 2.4-21.7 3.5.2-1.3 2.8-17.5 2.8-17.5 10.2-3 16.9-4.1 24.5-4.1 17.6 0 26.9 7.9 26.9 22.8 0 4-.6 8.9-1.7 15.4-1.6 11.3-5.4 35.4-6 41.3zm-231.4-1.2c-5.6 1.8-10 2.5-14.7 2.5-10.5 0-16.2-6-16.2-17.1-.1-3.4 1.5-12.5 2.8-20.7 1.2-7.3 8.9-53.1 8.9-53.1h20.3l-2.4 11.8h10.4l-2.8 18.7h-10.5c-2.4 14.8-5.7 33.2-5.8 35.6 0 4 2.1 5.8 7 5.8 2.3 0 4.1-.2 5.5-.7l-2.5 17.2zm62.4-.6c-7 2.1-13.7 3.2-20.9 3.1-22.8 0-34.6-11.9-34.6-34.7 0-26.6 15.1-46.1 35.6-46.1 16.8 0 27.5 11 27.5 28.1 0 5.7-.7 11.3-2.5 19.1h-40.5c-1.4 11.3 5.8 16 17.7 16 7.3 0 13.8-1.5 21.1-4.9l-3.4 19.4zm-11.4-46.1c.1-1.6 2.2-13.9-9.5-13.9-6.5 0-11.1 5-13 13.9h22.5zM183 188.4c0 9.8 4.8 16.6 15.6 21.7 8.3 3.9 9.6 5.1 9.6 8.6 0 4.8-3.7 7-11.7 7-6.1 0-11.8-1-18.3-3.1 0 0-2.7 17.1-2.8 18 4.6 1 8.8 1.9 21.3 2.3 21.6 0 31.6-8.2 31.6-26 0-10.7-4.2-17-14.4-21.7-8.6-3.9-9.6-4.8-9.6-8.4 0-4.2 3.4-6.4 10-6.4 4 0 9.5.4 14.7 1.2l2.9-18c-5.3-.8-13.3-1.5-18-1.5-23.1 0-31 12-30.9 26.3zm418.3 53.2H582l1-7.2c-5.6 6-11.4 8.6-18.9 8.6-14.9 0-24.7-12.8-24.7-32.3 0-25.9 15.2-47.7 33.3-47.7 7.9 0 13.9 3.2 19.5 10.6l4.5-27.6h20.2l-15.6 95.6zm-30.1-18c9.5 0 16.2-10.8 16.2-26.2 0-9.9-3.8-15.2-10.8-15.2-9.3 0-15.9 10.8-15.9 26.1 0 10.2 3.5 15.3 10.5 15.3zm-59.7-59.7c-2.6 24.1-7.1 48.4-10.7 72.5l-.9 5.2h20.5c7.3-47.5 9.1-56.8 20.6-55.7 1.8-9.7 5.2-18.3 7.8-22.6-8.6-1.8-13.4 3.1-19.6 12.3.5-4 1.4-7.8 1.2-11.8h-18.9zm-168.5 0c-2.6 24.1-7.1 48.4-10.7 72.5l-.9 5.2h20.5c7.3-47.5 9.1-56.8 20.6-55.7 1.8-9.7 5.2-18.3 7.8-22.6-8.6-1.8-13.4 3.1-19.6 12.3.5-4 1.4-7.8 1.2-11.8H343zm267.3 71.6c0-3.4 2.7-6.1 6.1-6.1 3.4 0 6.1 2.7 6.1 6.1 0 3.4-2.7 6.1-6.1 6.1-3.3 0-6.1-2.7-6.1-6.1zm6.1 4.6c2.6 0 4.6-2.1 4.6-4.6 0-2.6-2.1-4.6-4.6-4.6-2.6 0-4.6 2.1-4.6 4.6 0 2.6 2.1 4.6 4.6 4.6zm-.8-1.9h-1.2v-5.3h2.3c.5 0 1 0 1.4.3.4.3.7.8.7 1.3 0 .6-.4 1.2-.9 1.4l1 2.3h-1.4l-.8-2.1h-.9v2.1zm0-3.1h.7c.3 0 .5 0 .8-.1.2-.1.3-.4.3-.6 0-.2-.1-.4-.3-.6-.2-.1-.6-.1-.8-.1h-.7v1.4z"/>
</svg>